<svg aria-hidden="true" style="position: absolute; width: 0; height: 0; overflow: hidden;" version="1.1" xmlns="http://www.w3.org/2000/svg" xmlns:xlink="http://www.w3.org/1999/xlink">
<defs>
  <symbol  xmlns="http://www.w3.org/2000/svg" viewBox="0 0 24 24" id="shopping-cart">
    <path fill-rule="evenodd" clip-rule="evenodd" d="M2 1C1.44772 1 1 1.44772 1 2C1 2.55228 1.44772 3 2 3H3.21922L6.78345 17.2569C5.73276 17.7236 5 18.7762 5 20C5 21.6569 6.34315 23 8 23C9.65685 23 11 21.6569 11 20C11 19.6494 10.9398 19.3128 10.8293 19H15.1707C15.0602 19.3128 15 19.6494 15 20C15 21.6569 16.3431 23 18 23C19.6569 23 21 21.6569 21 20C21 18.3431 19.6569 17 18 17H8.78078L8.28078 15H18C20.0642 15 21.3019 13.6959 21.9887 12.2559C22.6599 10.8487 22.8935 9.16692 22.975 7.94368C23.0884 6.24014 21.6803 5 20.1211 5H5.78078L5.15951 2.51493C4.93692 1.62459 4.13696 1 3.21922 1H2ZM18 13H7.78078L6.28078 7H20.1211C20.6742 7 21.0063 7.40675 20.9794 7.81078C20.9034 8.9522 20.6906 10.3318 20.1836 11.3949C19.6922 12.4251 19.0201 13 18 13ZM18 20.9938C17.4511 20.9938 17.0062 20.5489 17.0062 20C17.0062 19.4511 17.4511 19.0062 18 19.0062C18.5489 19.0062 18.9938 19.4511 18.9938 20C18.9938 20.5489 18.5489 20.9938 18 20.9938ZM7.00617 20C7.00617 20.5489 7.45112 20.9938 8 20.9938C8.54888 20.9938 8.99383 20.5489 8.99383 20C8.99383 19.4511 8.54888 19.0062 8 19.0062C7.45112 19.0062 7.00617 19.4511 7.00617 20Z" ></path>
  </symbol>
  <symbol  xmlns="http://www.w3.org/2000/svg" viewBox="0 0 24 24" id="search">
    <path fill-rule="evenodd" clip-rule="evenodd" d="M17.0392 15.6244C18.2714 14.084 19.0082 12.1301 19.0082 10.0041C19.0082 5.03127 14.9769 1 10.0041 1C5.03127 1 1 5.03127 1 10.0041C1 14.9769 5.03127 19.0082 10.0041 19.0082C12.1301 19.0082 14.084 18.2714 15.6244 17.0392L21.2921 22.707C21.6828 23.0977 22.3163 23.0977 22.707 22.707C23.0977 22.3163 23.0977 21.6828 22.707 21.2921L17.0392 15.6244ZM10.0041 17.0173C6.1308 17.0173 2.99087 13.8774 2.99087 10.0041C2.99087 6.1308 6.1308 2.99087 10.0041 2.99087C13.8774 2.99087 17.0173 6.1308 17.0173 10.0041C17.0173 13.8774 13.8774 17.0173 10.0041 17.0173Z" ></path>
  </symbol>

  <symbol xmlns="http://www.w3.org/2000/svg" viewBox="0 0 24 24" id="facebook">
    <path d="M17.525,9H14V7c0-1.032,0.084-1.682,1.563-1.682h1.868v-3.18C16.522,2.044,15.608,1.998,14.693,2 C11.98,2,10,3.657,10,6.699V9H7v4l3-0.001V22h4v-9.003l3.066-0.001L17.525,9z"></path>
  </symbol>

    <symbol xmlns="http://www.w3.org/2000/svg" viewBox="0 0 50 50" id="twitter">
    <path d="M 50.0625 10.4375 C 48.214844 11.257813 46.234375 11.808594 44.152344 12.058594 C 46.277344 10.785156 47.910156 8.769531 48.675781 6.371094 C 46.691406 7.546875 44.484375 8.402344 42.144531 8.863281 C 40.269531 6.863281 37.597656 5.617188 34.640625 5.617188 C 28.960938 5.617188 24.355469 10.21875 24.355469 15.898438 C 24.355469 16.703125 24.449219 17.488281 24.625 18.242188 C 16.078125 17.8125 8.503906 13.71875 3.429688 7.496094 C 2.542969 9.019531 2.039063 10.785156 2.039063 12.667969 C 2.039063 16.234375 3.851563 19.382813 6.613281 21.230469 C 4.925781 21.175781 3.339844 20.710938 1.953125 19.941406 C 1.953125 19.984375 1.953125 20.027344 1.953125 20.070313 C 1.953125 25.054688 5.5 29.207031 10.199219 30.15625 C 9.339844 30.390625 8.429688 30.515625 7.492188 30.515625 C 6.828125 30.515625 6.183594 30.453125 5.554688 30.328125 C 6.867188 34.410156 10.664063 37.390625 15.160156 37.472656 C 11.644531 40.230469 7.210938 41.871094 2.390625 41.871094 C 1.558594 41.871094 0.742188 41.824219 -0.0585938 41.726563 C 4.488281 44.648438 9.894531 46.347656 15.703125 46.347656 C 34.617188 46.347656 44.960938 30.679688 44.960938 17.09375 C 44.960938 16.648438 44.949219 16.199219 44.933594 15.761719 C 46.941406 14.3125 48.683594 12.5 50.0625 10.4375 Z"></path>
  </symbol>

    <symbol xmlns="http://www.w3.org/2000/svg" viewBox="0 0 32 32" id="pinterest">
    <path d="M 16.09375 4 C 11.01675 4 6 7.3833281 6 12.861328 C 6 16.344328 7.9584844 18.324219 9.1464844 18.324219 C 9.6364844 18.324219 9.9199219 16.958266 9.9199219 16.572266 C 9.9199219 16.112266 8.7460938 15.131797 8.7460938 13.216797 C 8.7460938 9.2387969 11.774359 6.4199219 15.693359 6.4199219 C 19.063359 6.4199219 21.556641 8.3335625 21.556641 11.851562 C 21.556641 14.478563 20.501891 19.40625 17.087891 19.40625 C 15.855891 19.40625 14.802734 18.516234 14.802734 17.240234 C 14.802734 15.370234 16 13.558906 16 11.628906 C 16 8.3529063 11.462891 8.94725 11.462891 12.90625 C 11.462891 13.73725 11.5665 14.657063 11.9375 15.414062 C 11.2555 18.353063 10 23.037406 10 26.066406 C 10 27.001406 10.133656 27.921422 10.222656 28.857422 C 10.390656 29.045422 10.307453 29.025641 10.564453 28.931641 C 13.058453 25.517641 12.827078 24.544172 13.955078 20.076172 C 14.564078 21.234172 16.137766 21.857422 17.384766 21.857422 C 22.639766 21.857422 25 16.736141 25 12.119141 C 25 7.2061406 20.75475 4 16.09375 4 z"></path>
  </symbol>

  <symbol xmlns="http://www.w3.org/2000/svg" viewBox="0 0 26 26" id="instagram">
    <path d="M 7.546875 0 C 3.390625 0 0 3.390625 0 7.546875 L 0 18.453125 C 0 22.609375 3.390625 26 7.546875 26 L 18.453125 26 C 22.609375 26 26 22.609375 26 18.453125 L 26 7.546875 C 26 3.390625 22.609375 0 18.453125 0 Z M 7.546875 2 L 18.453125 2 C 21.527344 2 24 4.46875 24 7.546875 L 24 18.453125 C 24 21.527344 21.53125 24 18.453125 24 L 7.546875 24 C 4.472656 24 2 21.53125 2 18.453125 L 2 7.546875 C 2 4.472656 4.46875 2 7.546875 2 Z M 20.5 4 C 19.671875 4 19 4.671875 19 5.5 C 19 6.328125 19.671875 7 20.5 7 C 21.328125 7 22 6.328125 22 5.5 C 22 4.671875 21.328125 4 20.5 4 Z M 13 6 C 9.144531 6 6 9.144531 6 13 C 6 16.855469 9.144531 20 13 20 C 16.855469 20 20 16.855469 20 13 C 20 9.144531 16.855469 6 13 6 Z M 13 8 C 15.773438 8 18 10.226563 18 13 C 18 15.773438 15.773438 18 13 18 C 10.226563 18 8 15.773438 8 13 C 8 10.226563 10.226563 8 13 8 Z"></path>
  </symbol>

    <symbol xmlns="http://www.w3.org/2000/svg" viewBox="0 0 50 50" id="menu">
    <path d="M 0 7.5 L 0 12.5 L 50 12.5 L 50 7.5 Z M 0 22.5 L 0 27.5 L 50 27.5 L 50 22.5 Z M 0 37.5 L 0 42.5 L 50 42.5 L 50 37.5 Z"></path>
  </symbol>

<symbol id="check" viewbox="0 0 12 10">
<polyline
points="1.5 6 4.5 9 10.5 1"
stroke-linecap="round"
stroke-linejoin="round"
stroke-width="2"
></polyline>
</symbol>

</defs>
</svg>
