<svg aria-hidden="true" style="position: absolute; width: 0; height: 0; overflow: hidden;" version="1.1" xmlns="http://www.w3.org/2000/svg" xmlns:xlink="http://www.w3.org/1999/xlink">
<defs>
  <symbol  xmlns="http://www.w3.org/2000/svg" viewBox="0 0 24 24" id="shopping-cart">
    <path fill-rule="evenodd" clip-rule="evenodd" d="M2 1C1.44772 1 1 1.44772 1 2C1 2.55228 1.44772 3 2 3H3.21922L6.78345 17.2569C5.73276 17.7236 5 18.7762 5 20C5 21.6569 6.34315 23 8 23C9.65685 23 11 21.6569 11 20C11 19.6494 10.9398 19.3128 10.8293 19H15.1707C15.0602 19.3128 15 19.6494 15 20C15 21.6569 16.3431 23 18 23C19.6569 23 21 21.6569 21 20C21 18.3431 19.6569 17 18 17H8.78078L8.28078 15H18C20.0642 15 21.3019 13.6959 21.9887 12.2559C22.6599 10.8487 22.8935 9.16692 22.975 7.94368C23.0884 6.24014 21.6803 5 20.1211 5H5.78078L5.15951 2.51493C4.93692 1.62459 4.13696 1 3.21922 1H2ZM18 13H7.78078L6.28078 7H20.1211C20.6742 7 21.0063 7.40675 20.9794 7.81078C20.9034 8.9522 20.6906 10.3318 20.1836 11.3949C19.6922 12.4251 19.0201 13 18 13ZM18 20.9938C17.4511 20.9938 17.0062 20.5489 17.0062 20C17.0062 19.4511 17.4511 19.0062 18 19.0062C18.5489 19.0062 18.9938 19.4511 18.9938 20C18.9938 20.5489 18.5489 20.9938 18 20.9938ZM7.00617 20C7.00617 20.5489 7.45112 20.9938 8 20.9938C8.54888 20.9938 8.99383 20.5489 8.99383 20C8.99383 19.4511 8.54888 19.0062 8 19.0062C7.45112 19.0062 7.00617 19.4511 7.00617 20Z" ></path>
  </symbol>
  <symbol  xmlns="http://www.w3.org/2000/svg" viewBox="0 0 24 24" id="search">
    <path fill-rule="evenodd" clip-rule="evenodd" d="M17.0392 15.6244C18.2714 14.084 19.0082 12.1301 19.0082 10.0041C19.0082 5.03127 14.9769 1 10.0041 1C5.03127 1 1 5.03127 1 10.0041C1 14.9769 5.03127 19.0082 10.0041 19.0082C12.1301 19.0082 14.084 18.2714 15.6244 17.0392L21.2921 22.707C21.6828 23.0977 22.3163 23.0977 22.707 22.707C23.0977 22.3163 23.0977 21.6828 22.707 21.2921L17.0392 15.6244ZM10.0041 17.0173C6.1308 17.0173 2.99087 13.8774 2.99087 10.0041C2.99087 6.1308 6.1308 2.99087 10.0041 2.99087C13.8774 2.99087 17.0173 6.1308 17.0173 10.0041C17.0173 13.8774 13.8774 17.0173 10.0041 17.0173Z" ></path>
  </symbol>

<symbol id="check" viewbox="0 0 12 10">
<polyline
points="1.5 6 4.5 9 10.5 1"
stroke-linecap="round"
stroke-linejoin="round"
stroke-width="2"
></polyline>
</symbol>

</defs>
</svg>
